<?xml version="1.0" encoding="utf-8"?>
<!-- Generator: Adobe Illustrator 23.0.3, SVG Export Plug-In . SVG Version: 6.00 Build 0)  -->
<svg version="1.1" id="Layer_4" xmlns="http://www.w3.org/2000/svg" xmlns:xlink="http://www.w3.org/1999/xlink" x="0px" y="0px"
	 viewBox="0 0 40 40" style="enable-background:new 0 0 40 40;" xml:space="preserve">
<style type="text/css">
	.st0{clip-path:url(#SVGID_2_);}
</style>
<g>
	<defs>
		<path id="SVGID_1_" d="M24.5,17.1v1.4h-7.7v-1.4H24.5z M8.1,14v3.1h3.1v1.4H8.1v3.1H6.7v-3.1H3.6v-1.4h3.1V14H8.1z M13.3,11.5H1.5
			v11.9h11.9V11.5z M26.6,11.5H14.7v11.9h11.9V11.5z M24.5,28.3v1.4h-7.7v-1.4H24.5z M24.5,32.4v1.4h-7.7v-1.4H24.5z M9.6,27.8l1,1
			L8.4,31l2.2,2.2l-1,1L7.4,32l-2.2,2.2l-1-1L6.4,31l-2.2-2.2l1-1L7.4,30L9.6,27.8z M13.3,24.8H1.5v11.9h11.9V24.8z M26.6,24.8H14.7
			v11.9h11.9V24.8z M28,10.1V38H0.1V10.1H28z"/>
	</defs>
	<clipPath id="SVGID_2_">
		<use xlink:href="#SVGID_1_"  style="overflow:visible;"/>
	</clipPath>
	<rect x="-2.3" y="7.8" class="st0" width="32.6" height="32.6"/>
</g>
</svg>
