<?xml version="1.0" encoding="UTF-8"?>
<svg width="319px" height="363px" viewBox="0 0 319 363" version="1.1" xmlns="http://www.w3.org/2000/svg" xmlns:xlink="http://www.w3.org/1999/xlink">
    <!-- Generator: Sketch 60 (88103) - https://sketch.com -->
    <title>Thumb2-319x363</title>
    <desc>Created with Sketch.</desc>
    <defs>
        <path d="M20.644,1.137 C6.133,5.16 -2.369,20.185 1.655,34.697 L1.655,34.697 C5.678,49.208 20.703,57.711 35.214,53.687 L35.214,53.687 C49.725,49.664 58.228,34.638 54.204,20.126 L54.204,20.126 C50.857,8.053 39.891,0.138997685 27.943,0.138997685 L27.943,0.138997685 C25.532,0.138 23.081,0.461 20.644,1.137" id="path-1"></path>
        <polygon id="path-3" points="0.032 83.669 131.788 109.185 133.829 98.644 114.098 91.012 91.742 71.273 55.742 53.532 45.688 26.73 16.207 0.144"></polygon>
    </defs>
    <g id="Thumb2-319x363" stroke="none" stroke-width="1" fill="none" fill-rule="evenodd">
        <g id="Group-39">
            <polygon id="Fill-1" fill="#0052C2" points="0 363 324 363 324 0 0 0"></polygon>
            <polygon id="Fill-2" fill="#CCEBF8" points="108.1807 119.9787 69.4347 142.3477 39.8297 91.0717 78.5767 68.7017"></polygon>
            <g id="Group-5" transform="translate(230.000000, 23.000000)">
                <mask id="mask-2" fill="white">
                    <use xlink:href="#path-1"></use>
                </mask>
                <g id="Clip-4"></g>
                <path d="M20.644,1.137 C6.133,5.16 -2.369,20.185 1.655,34.697 L1.655,34.697 C5.678,49.208 20.703,57.711 35.214,53.687 L35.214,53.687 C49.725,49.664 58.228,34.638 54.204,20.126 L54.204,20.126 C50.857,8.053 39.891,0.138997685 27.943,0.138997685 L27.943,0.138997685 C25.532,0.138 23.081,0.461 20.644,1.137" id="Fill-3" mask="url(#mask-2)"></path>
            </g>
            <g id="Group-28" transform="translate(17.000000, 23.000000)">
                <path d="M252.5713,6.176 C240.9483,-2.964 224.1163,-0.949 214.9763,10.675 C205.8383,22.299 207.8513,39.13 219.4753,48.27 C231.0993,57.408 247.9313,55.395 257.0703,43.771 C266.2103,32.147 264.1953,15.315 252.5713,6.176" id="Fill-6" fill="#80CDEE"></path>
                <path d="M276.0107,21.6115 L276.0147,21.6435 C276.2867,23.9225 274.6467,26.0085 272.3677,26.2815 L263.2087,27.3785 C260.9307,27.6505 258.8437,26.0085 258.5707,23.7305 L258.5677,23.6995 C258.2937,21.4205 259.9357,19.3335 262.2137,19.0605 L271.3717,17.9655 C273.6517,17.6915 275.7387,19.3335 276.0107,21.6115" id="Fill-8" fill="#80CDEE"></path>
                <path d="M249.4775,10.1115 C240.0275,2.6815 226.3425,4.3185 218.9135,13.7685 C211.4825,23.2185 213.1205,36.9035 222.5705,44.3335 C232.0205,51.7635 245.7055,50.1265 253.1345,40.6755 C260.5655,31.2255 258.9275,17.5415 249.4775,10.1115" id="Fill-10" fill="#012169"></path>
                <path d="M15.0908,130.967 L12.6738,129.005 C12.4548,128.828 12.4218,128.507 12.5988,128.288 C12.7768,128.07 13.0978,128.036 13.3168,128.214 L15.3368,129.854 L27.4068,114.983 C25.5288,116.156 22.5558,118.648 19.6208,123.716 C19.4798,123.959 19.1678,124.042 18.9238,123.902 C18.6858,123.757 18.5968,123.448 18.7378,123.204 C23.7808,114.496 28.9048,113.085 29.1208,113.03 C29.3338,112.975 29.5588,113.062 29.6778,113.247 C29.7968,113.433 29.7828,113.673 29.6448,113.845 L15.8078,130.893 C15.6298,131.112 15.3088,131.145 15.0908,130.967" id="Fill-12" fill="#80CDEE"></path>
                <path d="M2.3145,138.134 L0.5845,136.73 C0.2375,136.448 0.1835,135.94 0.4655,135.593 L3.2745,132.132 C3.5555,131.785 4.0645,131.733 4.4115,132.014 L6.1415,133.418 C6.4885,133.699 6.5415,134.209 6.2595,134.555 L3.4515,138.016 C3.1695,138.363 2.6605,138.415 2.3145,138.134" id="Fill-14" fill="#80CDEE"></path>
                <path d="M58.6533,66.0266 L55.2303,68.3366 C54.8903,68.5656 54.8693,69.0586 55.1873,69.3166 L57.0523,70.8316 C57.3723,71.0886 57.8493,70.9666 58.0043,70.5876 L59.5603,66.7626 C59.7883,66.2046 59.1533,65.6886 58.6533,66.0266" id="Fill-16" fill="#E31837"></path>
                <polygon id="Fill-18" fill="#E31837" points="9.0713 133.4436 3.7853 129.1536 50.1343 72.0476 55.4213 76.3376"></polygon>
                <polygon id="Fill-20" fill="#012169" points="55.4209 76.3371 50.1349 72.0471 55.2319 67.9261 58.4049 70.5021"></polygon>
                <path d="M5.3135,135.0979 L2.9395,133.1709 C2.1355,132.5189 2.0125,131.3379 2.6655,130.5349 L4.3585,128.4489 L9.6445,132.7389 L7.9515,134.8249 C7.2985,135.6279 6.1185,135.7509 5.3135,135.0979" id="Fill-22" fill="#012169"></path>
                <path d="M227.0117,195.7619 L82.1557,167.4529 C76.1317,166.2769 72.1677,160.3859 73.3447,154.3639 L92.8217,54.6999 C93.9977,48.6779 99.8887,44.7129 105.9107,45.8899 L250.7687,74.1989 C256.7907,75.3749 260.7557,81.2659 259.5787,87.2879 L240.1027,186.9509 C238.9247,192.9749 233.0337,196.9399 227.0117,195.7619" id="Fill-24" fill="#000000"></path>
                <path d="M245.9893,81.8303 C232.3793,79.1513 120.3333,57.1183 106.7183,54.4433 C105.9203,54.2863 105.1483,54.8083 104.9913,55.6063 L84.8943,157.9223 C84.7373,158.7213 85.2543,159.4953 86.0523,159.6513 C99.6673,162.3253 211.7163,184.3433 225.3283,187.0123 C226.1263,187.1683 226.8963,186.6473 227.0533,185.8493 L247.1473,83.5593 C247.3033,82.7613 246.7883,81.9873 245.9893,81.8303" id="Fill-26" fill="#F5F5F5"></path>
            </g>
            <g id="Group-31" transform="translate(108.000000, 95.000000)">
                <mask id="mask-4" fill="white">
                    <use xlink:href="#path-3"></use>
                </mask>
                <g id="Clip-30"></g>
                <polygon id="Fill-29" mask="url(#mask-4)" points="0.032 83.669 131.788 109.185 133.829 98.644 114.098 91.012 91.742 71.273 55.742 53.532 45.688 26.73 16.207 0.144"></polygon>
            </g>
            <g id="Group-38" transform="translate(103.000000, 119.000000)" fill="#0052C2">
                <path d="M156.3975,39.969 L156.3975,39.969 C155.6135,39.816 155.0975,39.049 155.2515,38.265 L156.3905,32.428 C156.5435,31.644 157.3105,31.128 158.0945,31.281 C158.8785,31.434 159.3945,32.2 159.2415,32.985 L158.1015,38.823 C157.9485,39.607 157.1815,40.122 156.3975,39.969" id="Fill-32"></path>
                <path d="M156.9189,46.0354 C156.7409,46.9424 155.8609,47.5354 154.9529,47.3574 C154.0459,47.1804 153.4529,46.3014 153.6309,45.3924 C153.8089,44.4844 154.6889,43.8924 155.5959,44.0704 C156.5039,44.2474 157.0959,45.1274 156.9189,46.0354" id="Fill-34"></path>
                <path d="M8.2178,5.3801 C7.7958,7.5391 5.7028,8.9471 3.5438,8.5261 C1.3848,8.1041 -0.0232,6.0111 0.3988,3.8521 C0.8208,1.6921 2.9128,0.2841 5.0718,0.7061 C7.2318,1.1281 8.6398,3.2211 8.2178,5.3801" id="Fill-36"></path>
            </g>
        </g>
    </g>
</svg>