<?xml version="1.0" encoding="UTF-8"?>
<svg width="608px" height="460px" viewBox="0 0 608 460" version="1.1" xmlns="http://www.w3.org/2000/svg" xmlns:xlink="http://www.w3.org/1999/xlink">
    <!-- Generator: Sketch 60 (88103) - https://sketch.com -->
    <title>Thumb2-608x460</title>
    <desc>Created with Sketch.</desc>
    <defs>
        <path d="M31.0475741,1.48200984 C9.23280881,7.45606973 -3.54846983,29.7678395 2.50091446,51.3178164 L2.50091446,51.3178164 C8.54879542,72.8663084 31.1362703,85.4930623 52.9510356,79.5175175 L52.9510356,79.5175175 C74.7658008,73.5434576 87.5485828,51.2302028 81.4991985,29.6802259 L81.4991985,29.6802259 C76.467566,11.7521063 59.9820918,0 42.0203514,0 L42.0203514,0 C38.3958321,-0.00148153907 34.7111798,0.478165825 31.0475741,1.48200984" id="path-1"></path>
        <polygon id="path-3" points="0 124.091397 195.964364 162 199 146.33945 169.653535 135.000743 136.402834 105.674911 82.8590327 79.3174677 67.9054388 39.4982805 24.0575274 0"></polygon>
    </defs>
    <g id="Thumb2-608x460" stroke="none" stroke-width="1" fill="none" fill-rule="evenodd" transform="translate(0.000000, 0.000000)">
        <g id="Group-39-Copy-2" transform="translate(0.000000, -0.000000)">
            <polygon id="Fill-1" fill="#0052C2" points="0 460 608 460 608 0 0 0"></polygon>
            <polygon id="Fill-2" fill="#CCEBF8" points="212 168.588953 154.746324 202 111 125.412541 168.255154 92"></polygon>
            <g id="Group-5" transform="translate(393.000000, 24.000000)">
                <mask id="mask-2" fill="white">
                    <use xlink:href="#path-1"></use>
                </mask>
                <g id="Clip-4"></g>
                <path d="M31.0475741,1.48200984 C9.23280881,7.45606973 -3.54846983,29.7678395 2.50091446,51.3178164 L2.50091446,51.3178164 C8.54879542,72.8663084 31.1362703,85.4930623 52.9510356,79.5175175 L52.9510356,79.5175175 C74.7658008,73.5434576 87.5485828,51.2302028 81.4991985,29.6802259 L81.4991985,29.6802259 C76.467566,11.7521063 59.9820918,0 42.0203514,0 L42.0203514,0 C38.3958321,-0.00148153907 34.7111798,0.478165825 31.0475741,1.48200984" id="Fill-3" mask="url(#mask-2)"></path>
            </g>
            <g id="Group-28" transform="translate(77.000000, 24.000000)">
                <path d="M375.721472,9.55718714 C358.357137,-4.09763705 333.210748,-1.08730108 319.555923,16.2785278 C305.904087,33.6443568 308.911435,58.7892524 326.277264,72.4440766 C343.643093,86.0959128 368.789483,83.0885648 382.442813,65.7227359 C396.097637,48.3569069 393.087301,23.2105174 375.721472,9.55718714" id="Fill-6" fill="#80CDEE"></path>
                <path d="M410.950252,32.4328951 L410.956193,32.4801907 C411.36016,35.8485243 408.924475,38.9316064 405.539765,39.335097 L391.937058,40.9564493 C388.553833,41.3584619 385.454275,38.9316064 385.048823,35.5647507 L385.044367,35.5189331 C384.637429,32.1505994 387.076085,29.0660394 390.459311,28.6625488 L404.060532,27.0441524 C407.446728,26.6391838 410.546285,29.0660394 410.950252,32.4328951" id="Fill-8" fill="#80CDEE"></path>
                <path d="M371.586788,14.9524736 C357.477437,3.85911042 337.045008,6.30323364 325.953118,20.4125583 C314.858241,34.521883 317.303862,54.9542754 331.413212,66.0476386 C345.522563,77.1410018 365.954992,74.6968786 377.046882,60.5860609 C388.141759,46.4767362 385.696138,26.0458368 371.586788,14.9524736" id="Fill-10" fill="#012169"></path>
                <path d="M21.9221848,194.828789 L18.2841125,191.896846 C17.9544734,191.632344 17.9048017,191.152653 18.1712224,190.825387 C18.4391483,190.499616 18.922318,190.448807 19.2519571,190.714804 L22.2924644,193.165562 L40.4602476,170.94287 C37.633479,172.695759 33.1585147,176.419715 28.740748,183.993153 C28.5285146,184.356284 28.0588917,184.480316 27.6916225,184.271105 C27.3333845,184.054422 27.1994216,183.592664 27.411655,183.228039 C35.0023866,170.215114 42.7150396,168.106566 43.0401631,168.024376 C43.3607711,167.942186 43.6994414,168.072196 43.8785604,168.348653 C44.0576794,168.626605 44.0366066,168.985252 43.8288888,169.242283 L23.0014143,194.718206 C22.7334884,195.045472 22.2503187,195.094786 21.9221848,194.828789" id="Fill-12" fill="#80CDEE"></path>
                <path d="M3.96755547,205.721053 L1.43833312,203.554923 C0.931026673,203.119845 0.852079848,202.336089 1.26435771,201.800728 L5.37105458,196.461001 C5.78187046,195.92564 6.52601739,195.845413 7.03332383,196.278947 L9.56254618,198.445077 C10.0698526,198.878612 10.1473375,199.665454 9.73505962,200.199272 L5.62982473,205.538999 C5.21754686,206.07436 4.47339994,206.154587 3.96755547,205.721053" id="Fill-14" fill="#80CDEE"></path>
                <path d="M87.5616366,98.1707047 L82.4049893,101.831107 C81.8927895,102.193979 81.8611536,102.975181 82.3402111,103.384006 L85.1497779,105.784659 C85.6318484,106.191899 86.3504346,105.998579 86.5839375,105.398019 L88.928005,99.3369629 C89.2714802,98.4527617 88.3148716,97.6351133 87.5616366,98.1707047" id="Fill-16" fill="#E31837"></path>
                <polygon id="Fill-18" fill="#E31837" points="13.8825238 199 6 192.641442 75.115985 108 83 114.358558"></polygon>
                <polygon id="Fill-20" fill="#012169" points="82.670133 114 75 107.369397 82.3958888 101 87 104.981453"></polygon>
                <path d="M7.56070997,201.347076 L4.03106912,198.348307 C2.83568949,197.333674 2.65281425,195.495819 3.6236885,194.246202 L6.14082496,191 L14,197.676035 L11.4828635,200.922237 C10.5119893,202.171854 8.7575764,202.363265 7.56070997,201.347076" id="Fill-22" fill="#012169"></path>
                <path d="M338.185334,291.69109 L122.431694,249.496822 C113.459335,247.744007 107.555214,238.963533 109.308279,229.987805 L138.318011,81.4396571 C140.069587,72.4639292 148.84385,66.5541382 157.813229,68.3084444 L373.569849,110.502712 C382.539228,112.255528 388.444839,121.036002 386.691774,130.01173 L357.683532,278.558387 C355.928977,287.537096 347.154714,293.446887 338.185334,291.69109" id="Fill-24" fill="#000000"></path>
                <path d="M366.231929,121.928693 C345.939637,117.929115 178.880851,85.0352348 158.581105,81.0416285 C157.3913,80.8072374 156.24026,81.5865505 156.006176,82.7779141 L126.041872,235.529251 C125.807787,236.722108 126.578626,237.877641 127.768431,238.110539 C148.068177,242.102652 315.131436,274.974138 335.42671,278.958787 C336.616515,279.191685 337.764573,278.413865 337.998657,277.222501 L367.958488,124.509981 C368.191082,123.318617 367.423225,122.163084 366.231929,121.928693" id="Fill-26" fill="#F5F5F5"></path>
            </g>
            <g id="Group-31" transform="translate(212.000000, 131.000000)">
                <mask id="mask-4" fill="white">
                    <use xlink:href="#path-3"></use>
                </mask>
                <g id="Clip-30"></g>
                <polygon id="Fill-29" mask="url(#mask-4)" points="0 124.091397 195.964364 162 199 146.33945 169.653535 135.000743 136.402834 105.674911 82.8590327 79.3174677 67.9054388 39.4982805 24.0575274 0"></polygon>
            </g>
            <g id="Group-38" transform="translate(205.000000, 166.000000)" fill="#0052C2">
                <path d="M231.740612,59.9599746 L231.740612,59.9599746 C230.577426,59.7324469 229.811861,58.5918339 230.040343,57.4259401 L231.730226,48.7456821 C231.957225,47.5797883 233.095188,46.8124398 234.258373,47.0399675 C235.421559,47.2674953 236.187124,48.4066211 235.960125,49.5740021 L234.268759,58.2557472 C234.04176,59.421641 232.903797,60.1875024 231.740612,59.9599746" id="Fill-32"></path>
                <path d="M232.953321,68.9798556 C232.687716,70.333521 231.374615,71.2185525 230.019733,70.9528938 C228.666343,70.6887275 227.781492,69.3768512 228.047097,68.0202009 C228.312701,66.6650431 229.625803,65.7815041 230.979192,66.0471628 C232.334074,66.311329 233.217433,67.6246978 232.953321,68.9798556" id="Fill-34"></path>
                <path d="M11.8874643,8.1506752 C11.2519586,11.4017158 8.10003124,13.5218943 4.848712,12.8879489 C1.59739277,12.2524977 -0.522967349,9.10084039 0.11253831,5.84979976 C0.748043969,2.59725332 3.89846539,0.477074893 7.14978463,1.1125261 C10.4026098,1.7479773 12.5229699,4.89963457 11.8874643,8.1506752" id="Fill-36"></path>
            </g>
        </g>
    </g>
</svg>