<?xml version="1.0" encoding="UTF-8"?>
<svg width="319px" height="363px" viewBox="0 0 319 363" version="1.1" xmlns="http://www.w3.org/2000/svg" xmlns:xlink="http://www.w3.org/1999/xlink">
    <!-- Generator: Sketch 60 (88103) - https://sketch.com -->
    <title>Thumb3-319x363</title>
    <desc>Created with Sketch.</desc>
    <g id="Thumb3-319x363" stroke="none" stroke-width="1" fill="none" fill-rule="evenodd">
        <g id="Group-30">
            <polygon id="Fill-1" fill="#3375CE" points="0 363 324 363 324 0 0 0"></polygon>
            <polygon id="Fill-2" fill="#FFFFFF" points="99.352 182.316 102.362 182.316 102.362 168.129 99.352 168.129"></polygon>
            <g id="Group-29" transform="translate(105.000000, 81.000000)" fill="#FFFFFF">
                <path d="M6.7669,101.3156 L6.7669,95.0466 C6.7669,93.9956 6.6019,93.2316 5.3239,93.2316 C4.6429,93.2316 3.6949,93.5826 3.0129,93.9956 L3.0129,101.3156 L0.0439,101.3156 L0.0439,91.1696 L2.8279,91.1696 L2.8899,92.1186 L2.9729,92.1606 C4.1479,91.3766 5.5719,90.9426 6.5399,90.9426 C9.2209,90.9426 9.7159,92.5306 9.7159,94.4276 L9.7159,101.3156 L6.7669,101.3156 Z" id="Fill-3"></path>
                <path d="M15.4076,88.386 L15.4076,91.169 L18.3576,91.169 L18.3576,93.108 L15.4076,93.108 L15.4076,97.687 C15.4076,98.759 15.7186,99.253 16.7686,99.253 C17.1406,99.253 17.7796,99.151 18.5216,98.986 L18.8936,100.904 C18.0266,101.295 16.8726,101.481 16.0066,101.481 C13.1806,101.481 12.5006,100.078 12.5006,98.47 L12.5006,93.108 L11.0776,93.108 L11.0776,91.5 L12.6866,91.026 C12.8306,90.675 13.2846,88.944 13.4076,88.593 L15.4076,88.386 Z" id="Fill-5"></path>
                <path d="M22.9574,95.1496 L26.8544,95.1496 C26.8344,93.8086 26.4224,92.8396 25.0204,92.8396 C23.5564,92.8396 23.0614,93.9326 22.9574,95.1496 M29.5354,95.9126 L29.5354,96.9636 L22.9164,96.9636 C22.9164,98.5106 23.6384,99.2946 25.4524,99.2946 C26.5464,99.2946 27.6594,99.0466 28.7114,98.6556 L29.3094,100.4696 C27.9684,101.2126 26.4224,101.4806 25.0204,101.4806 C20.9364,101.4806 19.9474,99.0876 19.9474,96.3046 C19.9474,94.0776 20.8944,90.9636 24.8954,90.9636 C29.2464,90.9636 29.5354,94.0976 29.5354,95.9126" id="Fill-7"></path>
                <path d="M34.5902,93.3772 C35.5592,91.3982 37.0432,90.9422 38.5082,90.9422 L38.5082,93.5822 C37.1882,93.6042 35.7442,94.0772 34.5492,95.6662 L34.5492,101.3152 L31.6002,101.3152 L31.6002,91.1692 L34.4032,91.1692 L34.4862,93.3352 L34.5902,93.3772 Z" id="Fill-9"></path>
                <path d="M42.4466,95.1496 L46.3446,95.1496 C46.3236,93.8086 45.9116,92.8396 44.5096,92.8396 C43.0456,92.8396 42.5506,93.9326 42.4466,95.1496 M49.0256,95.9126 L49.0256,96.9636 L42.4056,96.9636 C42.4056,98.5106 43.1286,99.2946 44.9426,99.2946 C46.0356,99.2946 47.1486,99.0466 48.2006,98.6556 L48.7996,100.4696 C47.4586,101.2126 45.9116,101.4806 44.5096,101.4806 C40.4256,101.4806 39.4366,99.0876 39.4366,96.3046 C39.4366,94.0776 40.3846,90.9636 44.3846,90.9636 C48.7366,90.9636 49.0256,94.0976 49.0256,95.9126" id="Fill-11"></path>
                <path d="M58.7191,91.7473 C58.6161,91.9533 58.1831,93.3353 58.0801,93.5623 C56.9881,93.1493 56.0381,93.0263 55.2541,93.0263 C54.5121,93.0263 53.7711,93.1903 53.7711,93.9543 C53.7711,94.5103 54.8011,94.7583 55.5641,94.9653 C57.2551,95.4373 59.3181,96.0983 59.3181,98.4493 C59.3181,100.3883 57.7301,101.4803 54.5951,101.4803 C53.4401,101.4803 51.6871,101.2543 50.4711,100.6553 L51.1101,98.8203 C52.7811,99.4183 54.0171,99.5013 54.6981,99.5013 C55.6471,99.5013 56.4091,99.2323 56.4091,98.3873 C56.4091,97.5833 55.4191,97.3973 54.5121,97.1083 C52.6571,96.5313 50.8621,96.0173 50.8621,94.0363 C50.8621,92.0983 52.3681,90.9643 55.1521,90.9643 C56.2241,90.9643 57.6471,91.1693 58.7191,91.7473" id="Fill-13"></path>
                <path d="M64.597,88.386 L64.597,91.169 L67.547,91.169 L67.547,93.108 L64.597,93.108 L64.597,97.687 C64.597,98.759 64.908,99.253 65.958,99.253 C66.33,99.253 66.969,99.151 67.711,98.986 L68.083,100.904 C67.217,101.295 66.062,101.481 65.196,101.481 C62.37,101.481 61.69,100.078 61.69,98.47 L61.69,93.108 L60.267,93.108 L60.267,91.5 L61.876,91.026 C62.02,90.675 62.474,88.944 62.598,88.593 L64.597,88.386 Z" id="Fill-15"></path>
                <path d="M81.0345,93.5207 C82.0035,93.5207 83.1595,93.0267 83.1595,91.3757 C83.1595,89.9537 82.2725,89.2937 81.0135,89.2937 L78.8695,89.2937 L78.8695,93.5207 L81.0345,93.5207 Z M83.5715,95.2937 L86.5825,101.3157 L83.3035,101.3157 L80.6225,95.6037 L78.8695,95.6037 L78.8695,101.3157 L75.8595,101.3157 L75.8595,87.1487 L81.6125,87.1487 C84.8705,87.1487 86.2525,89.0867 86.2525,91.3147 C86.2525,92.5517 85.6335,94.5317 83.5715,95.2937 L83.5715,95.2937 Z" id="Fill-17"></path>
                <path d="M92.5033,96.9445 C91.5333,97.0255 91.0793,97.5215 91.0793,98.3255 C91.0793,99.1715 91.4923,99.6255 92.4623,99.6255 C93.0803,99.6255 93.8843,99.2945 94.5443,98.7165 L94.5443,96.7785 L92.5033,96.9445 Z M97.3493,101.3155 L94.7303,101.3155 L94.6263,100.3045 C94.6263,100.2845 94.6073,100.2845 94.5853,100.2635 C93.1633,101.5015 91.7393,101.5215 91.1623,101.5215 C88.6473,101.5215 88.0273,99.7485 88.0273,98.5735 C88.0273,96.4695 89.6573,95.4375 91.7803,95.3155 C92.5653,95.2535 93.7603,95.2115 94.5443,95.1495 L94.5443,94.9025 C94.5443,93.7475 94.1733,93.1495 92.6673,93.1495 C91.6783,93.1495 90.3993,93.3555 89.4503,93.6655 C89.3073,93.0465 89.1413,92.4275 88.9773,91.8295 C90.1733,91.3145 91.9263,90.9845 93.3683,90.9845 C95.8023,90.9845 97.3493,91.8915 97.3493,94.5095 L97.3493,101.3155 Z" id="Fill-19"></path>
                <path d="M103.1644,88.386 L103.1644,91.169 L106.1134,91.169 L106.1134,93.108 L103.1644,93.108 L103.1644,97.687 C103.1644,98.759 103.4744,99.253 104.5254,99.253 C104.8974,99.253 105.5364,99.151 106.2784,98.986 L106.6504,100.904 C105.7844,101.295 104.6294,101.481 103.7634,101.481 C100.9374,101.481 100.2574,100.078 100.2574,98.47 L100.2574,93.108 L98.8344,93.108 L98.8344,91.5 L100.4434,91.026 C100.5874,90.675 101.0414,88.944 101.1654,88.593 L103.1644,88.386 Z" id="Fill-21"></path>
                <path d="M110.7132,95.1496 L114.6102,95.1496 C114.5902,93.8086 114.1782,92.8396 112.7762,92.8396 C111.3122,92.8396 110.8172,93.9326 110.7132,95.1496 M117.2922,95.9126 L117.2922,96.9636 L110.6722,96.9636 C110.6722,98.5106 111.3952,99.2946 113.2082,99.2946 C114.3022,99.2946 115.4152,99.0466 116.4672,98.6556 L117.0652,100.4696 C115.7242,101.2126 114.1782,101.4806 112.7762,101.4806 C108.6922,101.4806 107.7032,99.0876 107.7032,96.3046 C107.7032,94.0776 108.6502,90.9636 112.6512,90.9636 C117.0032,90.9636 117.2922,94.0976 117.2922,95.9126" id="Fill-23"></path>
                <path d="M50.9886,11.8987 C39.8746,11.8987 38.2876,25.5927 38.2876,36.4097 C38.2876,49.7067 40.4696,60.0257 50.9886,60.0257 C60.9116,60.0257 63.2946,48.4167 63.2946,36.3087 C63.2946,25.7907 62.2016,11.8987 50.9886,11.8987 M50.8896,70.9417 C29.8516,70.9417 24.1956,54.6677 24.1956,36.3087 C24.1956,19.0437 29.9516,0.7847 50.9886,0.7847 C72.4226,0.7847 77.3846,19.4397 77.3846,36.1117 C77.3846,54.0717 70.7356,70.9417 50.8896,70.9417" id="Fill-25"></path>
                <path d="M100.765,21.9387 C98.56,21.9387 98.231,24.3407 98.231,26.2497 C98.231,28.6527 98.659,30.4617 100.765,30.4617 C102.706,30.4617 103.135,28.4217 103.135,26.2167 C103.135,24.3747 102.905,21.9387 100.765,21.9387 L100.765,21.9387 Z M100.733,32.9647 C96.059,32.9647 94.808,29.8047 94.808,26.2167 C94.808,22.8597 96.059,19.4047 100.765,19.4047 C105.504,19.4047 106.558,22.9597 106.558,26.2167 C106.558,29.7057 105.11,32.9647 100.733,32.9647 L100.733,32.9647 Z M88.983,33.4247 L86.119,33.4247 L96.487,9.4647 L99.317,9.4647 L88.983,33.4247 Z M84.967,13.1837 C82.763,13.1837 82.433,15.5857 82.433,17.4957 C82.433,19.8977 82.861,21.6747 84.967,21.6747 C86.91,21.6747 87.336,19.6347 87.336,17.4957 C87.336,15.6197 87.107,13.1837 84.967,13.1837 L84.967,13.1837 Z M84.934,24.2097 C80.26,24.2097 79.01,21.0167 79.01,17.4957 C79.01,14.1047 80.26,10.6497 84.967,10.6497 C89.707,10.6497 90.76,14.2047 90.76,17.4617 C90.76,20.9177 89.311,24.2097 84.934,24.2097 L84.934,24.2097 Z" id="Fill-27"></path>
            </g>
        </g>
    </g>
</svg>