<?xml version="1.0" encoding="UTF-8"?>
<svg width="608px" height="460px" viewBox="0 0 608 460" version="1.1" xmlns="http://www.w3.org/2000/svg" xmlns:xlink="http://www.w3.org/1999/xlink">
    <!-- Generator: Sketch 60 (88103) - https://sketch.com -->
    <title>Thumb3-608x460</title>
    <desc>Created with Sketch.</desc>
    <g id="Thumb3-608x460" stroke="none" stroke-width="1" fill="none" fill-rule="evenodd">
        <g id="Group-30-Copy-2">
            <polygon id="Fill-1" fill="#3375CE" points="0 460 608 460 608 0 0 0"></polygon>
            <g id="Group-29" transform="translate(191.000000, 68.000000)" fill="#FFFFFF">
                <polygon id="Fill-2" points="0 185 6 185 6 159 0 159"></polygon>
                <path d="M23.5117866,185 L23.5117866,173.517208 C23.5117866,171.592114 23.2047146,170.192712 20.8263027,170.192712 C19.558933,170.192712 17.794665,170.835631 16.5254342,171.592114 L16.5254342,185 L11,185 L11,166.415791 L16.1811414,166.415791 L16.2965261,168.154054 L16.4509926,168.230984 C18.6377171,166.794948 21.2878412,166 23.08933,166 C28.0787841,166 29,168.908705 29,172.383399 L29,185 L23.5117866,185 Z" id="Fill-3"></path>
                <path d="M38.7558854,161 L38.7558854,166.100573 L44.0399181,166.100573 L44.0399181,169.654296 L38.7558854,169.654296 L38.7558854,178.046506 C38.7558854,180.011226 39.3129478,180.916609 41.1937052,180.916609 C41.8600307,180.916609 43.0046059,180.729668 44.3336745,180.427262 L45,183.942497 C43.4470317,184.659107 41.3799898,185 39.8288127,185 C34.7668884,185 33.5488741,182.428637 33.5488741,179.481558 L33.5488741,169.654296 L31,169.654296 L31,166.707216 L33.8820368,165.838488 C34.1399693,165.195189 34.953173,162.02268 35.1734903,161.379381 L38.7558854,161 Z" id="Fill-5"></path>
                <path d="M52.6508135,173.562423 L59.9668335,173.562423 C59.9292866,171.139774 59.1558198,169.389179 56.5237797,169.389179 C53.7753442,169.389179 52.8460576,171.363792 52.6508135,173.562423 M65,174.940858 L65,176.839593 L52.5738423,176.839593 C52.5738423,179.634401 53.9292866,181.050775 57.3347935,181.050775 C59.3886108,181.050775 61.4780976,180.602738 63.4530663,179.896358 L64.5757196,183.173529 C62.0581977,184.515832 59.1558198,185 56.5237797,185 C48.8566959,185 47,180.676809 47,175.649044 C47,171.625749 48.7778473,166 56.2891114,166 C64.4574468,166 65,171.661881 65,174.940858" id="Fill-7"></path>
                <path d="M74.6268095,170.460137 C76.4503474,166.835245 79.2430515,166 82,166 L82,170.835631 C79.5159236,170.875928 76.7984945,171.742312 74.5496526,174.652849 L74.5496526,185 L69,185 L69,166.415791 L74.2748987,166.415791 L74.4310944,170.383206 L74.6268095,170.460137 Z" id="Fill-9"></path>
                <path d="M88.6502242,173.562423 L95.9673584,173.562423 C95.9279383,171.139774 95.1545521,169.389179 92.5227865,169.389179 C89.7746376,169.389179 88.8454479,171.363792 88.6502242,173.562423 M101,174.940858 L101,176.839593 L88.573261,176.839593 C88.573261,179.634401 89.9304411,181.050775 93.3355929,181.050775 C95.3873188,181.050775 97.4765878,180.602738 99.4513505,179.896358 L100.575764,183.173529 C98.0585045,184.515832 95.1545521,185 92.5227865,185 C84.8565022,185 83,180.676809 83,175.649044 C83,171.625749 84.7795391,166 92.2881427,166 C100.457503,166 101,171.661881 101,174.940858" id="Fill-11"></path>
                <path d="M117.916695,167.414701 C117.730417,167.786896 116.947327,170.283853 116.761049,170.69399 C114.786142,169.947794 113.068046,169.725561 111.650164,169.725561 C110.30824,169.725561 108.968125,170.021871 108.968125,171.402244 C108.968125,172.406809 110.830903,172.854888 112.210806,173.228889 C115.269018,174.081685 119,175.27596 119,179.523678 C119,183.027006 116.128066,185 110.458347,185 C108.369504,185 105.199164,184.59167 103,183.509414 L104.155646,180.19399 C107.177687,181.274439 109.413021,181.424401 110.644625,181.424401 C112.360913,181.424401 113.739008,180.93838 113.739008,179.411658 C113.739008,177.959015 111.94857,177.622955 110.30824,177.100799 C106.953431,176.058292 103.707132,175.129612 103.707132,171.550399 C103.707132,168.048878 106.430767,166 111.465695,166 C113.404431,166 115.977959,166.370388 117.916695,167.414701" id="Fill-13"></path>
                <path d="M128.755885,161 L128.755885,166.100573 L134.039918,166.100573 L134.039918,169.654296 L128.755885,169.654296 L128.755885,178.046506 C128.755885,180.011226 129.312948,180.916609 131.193705,180.916609 C131.860031,180.916609 133.004606,180.729668 134.333675,180.427262 L135,183.942497 C133.448823,184.659107 131.37999,185 129.828813,185 C124.766888,185 123.548874,182.428637 123.548874,179.481558 L123.548874,169.654296 L121,169.654296 L121,166.707216 L123.882037,165.838488 C124.139969,165.195189 124.953173,162.02268 125.175281,161.379381 L128.755885,161 Z" id="Fill-15"></path>
                <path d="M159.65215,170.694219 C161.45948,170.694219 163.615593,169.787605 163.615593,166.757606 C163.615593,164.147879 161.961205,162.936613 159.612981,162.936613 L155.614101,162.936613 L155.614101,170.694219 L159.65215,170.694219 Z M164.384034,173.948119 L170,185 L163.884174,185 L158.883708,174.517047 L155.614101,174.517047 L155.614101,185 L150,185 L150,159 L160.730206,159 C166.806864,159 169.384501,162.556716 169.384501,166.645655 C169.384501,168.915861 168.229973,172.549658 164.384034,173.948119 L164.384034,173.948119 Z" id="Fill-17"></path>
                <path d="M180.162626,176.746892 C178.393692,176.892949 177.565758,177.787321 177.565758,179.237069 C177.565758,180.762551 178.318923,181.58119 180.087857,181.58119 C181.214868,181.58119 182.681077,180.984341 183.884681,179.942109 L183.884681,176.447566 L180.162626,176.746892 Z M189,184.628547 L184.223879,184.628547 L184.03422,182.805542 C184.03422,182.769479 183.999571,182.769479 183.959451,182.731612 C181.36623,184.963937 178.769363,185 177.717121,185 C173.130659,185 172,181.80298 172,179.684255 C172,175.890386 174.972538,174.029515 178.844132,173.809528 C180.275692,173.697732 182.454945,173.621999 183.884681,173.510202 L183.884681,173.064819 C183.884681,170.982158 183.20811,169.903863 180.461703,169.903863 C178.658121,169.903863 176.325681,170.275316 174.595044,170.834298 C174.334263,169.718136 174.031538,168.601974 173.732461,167.523678 C175.913538,166.595046 179.110384,166 181.740077,166 C186.178824,166 189,167.635475 189,172.356173 L189,184.628547 Z" id="Fill-19"></path>
                <path d="M199.755885,161 L199.755885,166.100573 L205.038127,166.100573 L205.038127,169.654296 L199.755885,169.654296 L199.755885,178.046506 C199.755885,180.011226 200.311157,180.916609 202.193705,180.916609 C202.860031,180.916609 204.004606,180.729668 205.333675,180.427262 L206,183.942497 C204.448823,184.659107 202.37999,185 200.828813,185 C195.766888,185 194.548874,182.428637 194.548874,179.481558 L194.548874,169.654296 L192,169.654296 L192,166.707216 L194.882037,165.838488 C195.139969,165.195189 195.953173,162.02268 196.175281,161.379381 L199.755885,161 Z" id="Fill-21"></path>
                <path d="M213.650224,173.562423 L220.965481,173.562423 C220.927938,171.139774 220.154552,169.389179 217.522787,169.389179 C214.774638,169.389179 213.845448,171.363792 213.650224,173.562423 M226,174.940858 L226,176.839593 L213.573261,176.839593 C213.573261,179.634401 214.930441,181.050775 218.333716,181.050775 C220.387319,181.050775 222.476588,180.602738 224.451351,179.896358 L225.573887,183.173529 C223.056627,184.515832 220.154552,185 217.522787,185 C209.856502,185 208,180.676809 208,175.649044 C208,171.625749 209.777662,166 217.288143,166 C225.457503,166 226,171.661881 226,174.940858" id="Fill-23"></path>
                <path d="M103.862002,20.43568 C83.5935626,20.43568 80.6993739,45.6152914 80.6993739,65.5048677 C80.6993739,89.954502 84.6786554,108.928389 103.862002,108.928389 C121.958431,108.928389 126.304273,87.5825363 126.304273,65.3191556 C126.304273,45.9793606 124.310985,20.43568 103.862002,20.43568 M103.681457,129 C65.3147643,129 55,99.0764571 55,65.3191556 C55,33.5734282 65.4971329,0 103.862002,0 C142.950873,0 152,34.3015665 152,64.9569252 C152,97.9805721 139.874316,129 103.681457,129" id="Fill-25"></path>
                <path d="M195.485625,38.9071786 C191.48352,38.9071786 190.88638,43.318197 190.88638,46.8238731 C190.88638,51.2367279 191.663206,54.5587646 195.485625,54.5587646 C199.008567,54.5587646 199.787208,50.8125209 199.787208,46.7632721 C199.787208,43.3806344 199.369755,38.9071786 195.485625,38.9071786 L195.485625,38.9071786 Z M195.427545,59.1552588 C186.94417,59.1552588 184.673588,53.3522538 184.673588,46.7632721 C184.673588,40.5984975 186.94417,34.2537563 195.485625,34.2537563 C204.086975,34.2537563 206,40.7821369 206,46.7632721 C206,53.1704508 203.37186,59.1552588 195.427545,59.1552588 L195.427545,59.1552588 Z M174.101133,60 L168.902933,60 L187.720996,16 L192.857485,16 L174.101133,60 Z M166.812037,22.8295492 C162.811747,22.8295492 162.212792,27.2405676 162.212792,30.7480801 C162.212792,35.1590985 162.989618,38.4223706 166.812037,38.4223706 C170.338609,38.4223706 171.111805,34.6761269 171.111805,30.7480801 C171.111805,27.303005 170.696167,22.8295492 166.812037,22.8295492 L166.812037,22.8295492 Z M166.752142,43.0776294 C158.268767,43.0776294 156,37.2140234 156,30.7480801 C156,24.5208681 158.268767,18.1761269 166.812037,18.1761269 C175.415203,18.1761269 177.326412,24.7045075 177.326412,30.6856427 C177.326412,37.0322204 174.696457,43.0776294 166.752142,43.0776294 L166.752142,43.0776294 Z" id="Fill-27"></path>
            </g>
        </g>
    </g>
</svg>