<?xml version="1.0" encoding="utf-8"?>
<svg version="1.1" id="Layer_1" x="0" y="0" viewBox="44.3 26.9 41.4 51.9" xmlns="http://www.w3.org/2000/svg">
  <style>
    .st3{fill:#c41230}
  </style>
  <path class="st3" d="M44.3 26.9v51.8l20.8-14.2 20.6 14.3V26.9H44.3zm38.8 46.9l-18-12.5-18.2 12.5V29.5h36.3v44.3z"/>
  <path class="st3" d="M56.2 60.4L65 54l8.8 6.4L70.5 50l8.8-6.4H68.4L65 33.2l-3.4 10.4H50.7l8.8 6.4-3.3 10.4zm2.5-14.2h4.8l1.5-4.6 1.5 4.6h4.8L67.4 49l1.5 4.6-3.9-2.9-3.9 2.8 1.5-4.6-3.9-2.7z"/>
</svg>