<?xml version="1.0" encoding="utf-8"?>
<svg viewBox="9.4 23.7 111.3 65.5" xmlns="http://www.w3.org/2000/svg">
  <g fill="#6D1ED4">
    <path d="M75 71.6c-.7-1.2-1.1-2.5-1.3-4 0-.2-.1-.4-.3-.5-.1-.1-.3-.1-.5-.1h-1c-.9 0-1.6-.2-1.6-2.1V37.5c0-.4-.3-.7-.7-.7h-5.2c-.4 0-.7.3-.7.7v28.1c0 2.1.2 3.7 1.2 5.1 1.2 1.6 3.5 2.6 5.7 2.6h.3c1.3 0 2.6-.1 3.7-.5.2-.1.4-.2.5-.5 0-.2 0-.4-.1-.7zm14.1-.9c-1-1.4-1.3-1.6-1.9-3.1-.1-.2-.1-.4-.3-.5-.1-.1-.3-.1-.5-.1h-1c-.9 0-1.6-.2-1.6-2.1V37.5c0-.4-.3-.7-.7-.7h-5.2c-.4 0-.7.3-.7.7v28.1c0 2.1.2 3.7 1.2 5.1 1.2 1.6 3.5 2.6 5.7 2.6h.3c1.3 0 2.6-.1 3.7-.5l1.2-.6c.4-.6-.1-1.3-.2-1.5zM47.9 46c-3.9 0-7.3 1.4-9.7 4-2.3 2.5-3.5 5.9-3.5 9.8 0 3.9 1.2 7.2 3.5 9.6 2.4 2.5 5.9 3.9 10.1 3.9 4.5 0 8.3-1.6 11.3-4.7.3-.3.3-.8 0-1-.3-.2-1.8-1.2-3.4-3.3-.2-.1-.3-.2-.5-.2s-.4.1-.5.2c-1.8 1.9-4.1 2.7-6.7 2.7-3.9 0-6.3-1.8-6.8-5.4h18.1c.4 0 .7-.3.7-.6.1-.6.1-1.2.1-1.9 0-3.7-1.2-7-3.4-9.4-2.2-2.4-5.5-3.7-9.3-3.7zM42 56.4c.5-3 2.8-4.8 6-4.8s5.4 1.8 6 4.8H42zM101.8 46c-3.9 0-7.3 1.4-9.7 4-2.3 2.5-3.5 5.9-3.5 9.8 0 3.9 1.2 7.2 3.5 9.6 2.4 2.5 5.9 3.9 10.1 3.9 4.5 0 8.3-1.6 11.3-4.7.3-.3.3-.8 0-1-.3-.2-1.8-1.2-3.4-3.3-.2-.1-.3-.2-.5-.2s-.4.1-.5.2c-1.8 1.9-4.1 2.7-6.7 2.7-3.9 0-6.3-1.8-6.8-5.4h18.1c.4 0 .7-.3.7-.6.1-.6.1-1.2.1-1.9 0-3.7-1.2-7-3.4-9.4-2.3-2.4-5.5-3.7-9.3-3.7zm-6 10.4c.5-3 2.8-4.8 6-4.8s5.4 1.8 6 4.8h-12z"/>
    <path d="M36.1 71.5s-.1-.1 0 0l-.1-.1c-1.2-1.3-2.2-2.8-2.9-4.5-.1-.3-.4-.4-.7-.4H18.8l16.6-21.3c.1-.1.2-.3.2-.4v-4.1c0-.4-.3-.7-.7-.7h-9v-5.9c0-.2-.2-.4-.4-.4H20c-.2 0-.4.2-.4.4V40h-8.8c-.4 0-.7.3-.7.7v4.8c0 .4.3.7.7.7h15.3l-16.5 21c-.1.1-.2.3-.2.4V72c0 .4.3.7.7.7h9.5v5.9c0 .2.2.4.4.4h5.5c.2 0 .4-.2.4-.4v-5.9h9.7c.3 0 .5-.2.7-.4 0-.3 0-.6-.2-.8z"/>
  </g>
  <path fill="#6D1ED4" d="M114.5 42.9c0-.4.1-.8.2-1.2.2-.4.4-.7.7-1 .3-.3.6-.5 1-.6.4-.2.8-.2 1.2-.2.4 0 .8.1 1.2.2.4.2.7.4 1 .6s.5.6.7 1c.2.4.2.8.2 1.2 0 .4-.1.8-.2 1.2-.2.4-.4.7-.7 1s-.6.5-1 .6c-.4.2-.8.2-1.2.2-.4 0-.8-.1-1.2-.2s-.7-.4-1-.6-.5-.6-.7-1c-.2-.3-.2-.7-.2-1.2zm.4 0c0 .4.1.7.2 1 .1.3.3.6.6.8.2.2.5.4.8.5.3.1.6.2 1 .2s.7-.1 1-.2c.3-.1.6-.3.8-.6.2-.2.4-.5.6-.8.1-.3.2-.7.2-1 0-.4-.1-.7-.2-1-.1-.3-.3-.6-.6-.8-.2-.2-.5-.4-.8-.5s-.6-.2-1-.2-.7.1-1 .2c-.3.1-.6.3-.8.5-.2.2-.4.5-.6.8-.1.4-.2.8-.2 1.1zm1.5-1.7h1.3c.4 0 .7.1.9.2.2.2.3.4.3.8 0 .3-.1.5-.3.7-.2.1-.4.2-.7.3l1 1.5h-.5l-1-1.5h-.6v1.5h-.5v-3.5zm.5 1.6h1c.1 0 .2 0 .3-.1.1 0 .2-.1.2-.2.1-.1.1-.2.1-.3 0-.1 0-.2-.1-.3 0-.1-.1-.1-.2-.2-.1 0-.2-.1-.3-.1h-1.1v1.2z"/>
</svg>